<?xml version="1.0" standalone="no"?>
<!DOCTYPE svg PUBLIC "-//W3C//DTD SVG 20010904//EN" "http://www.w3.org/TR/2001/REC-SVG-20010904/DTD/svg10.dtd">
<svg version="1.0" xmlns="http://www.w3.org/2000/svg" width="500.000000pt" height="500.000000pt"
    viewBox="0 0 500.000000 500.000000" preserveAspectRatio="xMidYMid meet">
    <g transform="translate(0.000000,500.000000) scale(0.100000,-0.100000)" stroke="#000000">
        <path class="progressive-path-svg-draw" fill="black" stroke="none" stroke-miterlimit="10" stroke-width="30" d="M1850 2755 l0 -805 -555 0 -555 0 0 200 0 200 -245 0 -245 0 0 -445
0 -445 1050 0 1050 0 0 800 0 800 355 0 355 0 0 -800 0 -800 245 0 245 0 0
800 0 800 355 0 355 0 0 -800 0 -800 245 0 245 0 0 1050 0 1050 -1450 0 -1450
0 0 -805z" />
    </g>
</svg>