<?xml version="1.0" encoding="utf-8"?>
<svg xmlns="http://www.w3.org/2000/svg" zoomAndPan="magnify" preserveAspectRatio="xMidYMid meet" version="1.0" viewBox="0 0 352 83" xmlns:bx="https://boxy-svg.com" width="352px" height="83px"><defs><g/><clipPath id="f2744feeb1"><path d="M 10.890625 150.449219 L 67.140625 150.449219 L 67.140625 234.824219 L 10.890625 234.824219 Z M 10.890625 150.449219 " clip-rule="nonzero"/></clipPath><clipPath id="4a80ff32bd"><path d="M 39.015625 150.449219 L 67.140625 150.449219 L 39.015625 234.824219 L 10.890625 234.824219 Z M 39.015625 150.449219 " clip-rule="nonzero"/></clipPath><clipPath id="69703f13e2"><path d="M 37.5 150.449219 L 93.75 150.449219 L 93.75 234.824219 L 37.5 234.824219 Z M 37.5 150.449219 " clip-rule="nonzero"/></clipPath><clipPath id="6f8ddcfce3"><path d="M 65.625 150.449219 L 93.75 150.449219 L 65.625 234.824219 L 37.5 234.824219 Z M 65.625 150.449219 " clip-rule="nonzero"/></clipPath><clipPath id="53f3a575e6"><path d="M 63.871094 150.449219 L 363.136719 150.449219 L 363.136719 234.824219 L 63.871094 234.824219 Z M 63.871094 150.449219 " clip-rule="nonzero"/></clipPath><clipPath id="673a9de73a"><path d="M 91.996094 150.449219 L 363.023438 150.449219 L 334.898438 234.824219 L 63.871094 234.824219 Z M 91.996094 150.449219 " clip-rule="nonzero"/></clipPath></defs><g clip-path="url(#f2744feeb1)" transform="matrix(1, 0, 0, 1, -10.517798, -150.889954)"><g clip-path="url(#4a80ff32bd)"><path fill="#004aad" d="M 10.890625 150.449219 L 67.140625 150.449219 L 67.140625 234.824219 L 10.890625 234.824219 Z M 10.890625 150.449219 " fill-opacity="1" fill-rule="nonzero"/></g></g><g clip-path="url(#69703f13e2)" transform="matrix(1, 0, 0, 1, -10.517798, -150.889954)"><g clip-path="url(#6f8ddcfce3)"><path fill="#053b84" d="M 37.5 150.449219 L 93.75 150.449219 L 93.75 234.824219 L 37.5 234.824219 Z M 37.5 150.449219 " fill-opacity="1" fill-rule="nonzero"/></g></g><g clip-path="url(#53f3a575e6)" transform="matrix(1, 0, 0, 1, -10.517798, -150.889954)"><g clip-path="url(#673a9de73a)"><path fill="#041e42" d="M 63.871094 150.449219 L 363.136719 150.449219 L 363.136719 234.824219 L 63.871094 234.824219 Z M 63.871094 150.449219 " fill-opacity="1" fill-rule="nonzero"/></g></g><g fill="#ffffff" fill-opacity="1" transform="matrix(1, 0, 0, 1, -10.517798, -150.889954)"><g transform="translate(195.127143, 187.6384)"><g><path d="M 8.9375 0.9375 C 7.09375 0.9375 5.460938 0.71875 4.046875 0.28125 C 2.640625 -0.144531 1.519531 -0.828125 0.6875 -1.765625 C -0.144531 -2.703125 -0.640625 -3.914062 -0.796875 -5.40625 C -0.953125 -6.894531 -0.695312 -8.703125 -0.03125 -10.828125 L 7.4375 -10.828125 C 7.082031 -9.703125 6.941406 -8.78125 7.015625 -8.0625 C 7.097656 -7.351562 7.3125 -6.816406 7.65625 -6.453125 C 8 -6.085938 8.421875 -5.832031 8.921875 -5.6875 C 9.421875 -5.539062 9.925781 -5.46875 10.4375 -5.46875 C 11.257812 -5.46875 12.082031 -5.640625 12.90625 -5.984375 C 13.726562 -6.328125 14.488281 -6.90625 15.1875 -7.71875 C 15.882812 -8.53125 16.457031 -9.632812 16.90625 -11.03125 L 22.359375 -28 L 29.90625 -28 L 24.4375 -11 C 23.476562 -7.957031 22.25 -5.566406 20.75 -3.828125 C 19.25 -2.097656 17.507812 -0.867188 15.53125 -0.140625 C 13.550781 0.578125 11.351562 0.9375 8.9375 0.9375 Z M 8.9375 0.9375 "/></g></g></g><g fill="#ffffff" fill-opacity="1" transform="matrix(1, 0, 0, 1, -10.517798, -150.889954)"><g transform="translate(221.824491, 187.6384)"><g><path d="M 13 0.9375 C 10.375 0.9375 8.132812 0.476562 6.28125 -0.4375 C 4.425781 -1.363281 3.003906 -2.675781 2.015625 -4.375 C 1.023438 -6.082031 0.53125 -8.101562 0.53125 -10.4375 C 0.53125 -12.363281 0.851562 -14.234375 1.5 -16.046875 C 2.144531 -17.859375 3.054688 -19.539062 4.234375 -21.09375 C 5.410156 -22.65625 6.816406 -24.023438 8.453125 -25.203125 C 10.085938 -26.378906 11.894531 -27.296875 13.875 -27.953125 C 15.863281 -28.609375 17.984375 -28.9375 20.234375 -28.9375 C 22.859375 -28.9375 25.097656 -28.476562 26.953125 -27.5625 C 28.804688 -26.65625 30.226562 -25.347656 31.21875 -23.640625 C 32.207031 -21.941406 32.703125 -19.914062 32.703125 -17.5625 C 32.703125 -15.632812 32.378906 -13.765625 31.734375 -11.953125 C 31.085938 -10.140625 30.175781 -8.453125 29 -6.890625 C 27.820312 -5.335938 26.414062 -3.972656 24.78125 -2.796875 C 23.144531 -1.617188 21.332031 -0.703125 19.34375 -0.046875 C 17.351562 0.609375 15.238281 0.9375 13 0.9375 Z M 14.203125 -5.5625 C 15.828125 -5.5625 17.3125 -5.878906 18.65625 -6.515625 C 20 -7.148438 21.15625 -7.992188 22.125 -9.046875 C 23.101562 -10.109375 23.863281 -11.28125 24.40625 -12.5625 C 24.957031 -13.851562 25.234375 -15.144531 25.234375 -16.4375 C 25.234375 -17.75 24.957031 -18.847656 24.40625 -19.734375 C 23.863281 -20.617188 23.125 -21.289062 22.1875 -21.75 C 21.257812 -22.207031 20.207031 -22.4375 19.03125 -22.4375 C 17.40625 -22.4375 15.921875 -22.117188 14.578125 -21.484375 C 13.234375 -20.847656 12.066406 -20 11.078125 -18.9375 C 10.085938 -17.882812 9.328125 -16.71875 8.796875 -15.4375 C 8.265625 -14.164062 7.988281 -12.882812 7.96875 -11.59375 C 7.96875 -10.289062 8.238281 -9.1875 8.78125 -8.28125 C 9.320312 -7.382812 10.066406 -6.707031 11.015625 -6.25 C 11.960938 -5.789062 13.023438 -5.5625 14.203125 -5.5625 Z M 14.203125 -5.5625 "/></g></g></g><g fill="#ffffff" fill-opacity="1" transform="matrix(1, 0, 0, 1, -10.517798, -150.889954)"><g transform="translate(255.02119, 187.6384)"><g><path d="M 26.171875 -28 L 33.703125 -28 L 24.703125 0 L 17.171875 0 L 20.59375 -10.640625 L 7.828125 -10.640625 L 4.40625 0 L -3.140625 0 L 5.859375 -28 L 13.40625 -28 L 9.796875 -16.828125 L 22.5625 -16.828125 Z M 26.171875 -28 "/></g></g></g><g fill="#ffffff" fill-opacity="1" transform="matrix(1, 0, 0, 1, -10.517798, -150.889954)"><g transform="translate(285.584821, 187.6384)"><g><path d="M 20.03125 0 L 19.859375 -4.359375 L 6.796875 -4.359375 L 3.828125 0 L -4.203125 0 L 15.265625 -28 L 25.828125 -28 L 27.46875 0 Z M 10.640625 -10 L 19.671875 -10 L 19.234375 -20.9375 L 18.0625 -20.9375 Z M 10.640625 -10 "/></g></g></g><g fill="#ffffff" fill-opacity="1" transform="matrix(1, 0, 0, 1, -10.517798, -150.889954)"><g transform="translate(317.414992, 187.6384)"><g><path d="M -3.203125 0 L 5.9375 -28 L 14.296875 -28 L 20.5 -10.203125 L 21.328125 -10.203125 L 27.171875 -28 L 34.5 -28 L 25.40625 0 L 17.203125 0 L 10.765625 -17.671875 L 9.9375 -17.671875 L 4.140625 0 Z M -3.203125 0 "/></g></g></g><g fill="#ffffff" fill-opacity="1" transform="matrix(1, 0, 0, 1, -10.517798, -150.889954)"><g transform="translate(93.379319, 224.861572)"><g><path d="M -3.140625 0 L 5.859375 -28 L 18.203125 -28 C 21.085938 -28 23.4375 -27.578125 25.25 -26.734375 C 27.0625 -25.890625 28.394531 -24.6875 29.25 -23.125 C 30.101562 -21.570312 30.53125 -19.742188 30.53125 -17.640625 C 30.53125 -14.941406 30.03125 -12.503906 29.03125 -10.328125 C 28.03125 -8.148438 26.628906 -6.296875 24.828125 -4.765625 C 23.035156 -3.234375 20.925781 -2.054688 18.5 -1.234375 C 16.070312 -0.410156 13.453125 0 10.640625 0 Z M 6.40625 -6.328125 L 12 -6.328125 C 13.570312 -6.328125 15.019531 -6.585938 16.34375 -7.109375 C 17.664062 -7.640625 18.828125 -8.367188 19.828125 -9.296875 C 20.828125 -10.234375 21.597656 -11.320312 22.140625 -12.5625 C 22.691406 -13.8125 22.96875 -15.144531 22.96875 -16.5625 C 22.96875 -18.382812 22.40625 -19.695312 21.28125 -20.5 C 20.15625 -21.300781 18.472656 -21.703125 16.234375 -21.703125 L 11.359375 -21.703125 Z M 6.40625 -6.328125 "/></g></g></g><g fill="#ffffff" fill-opacity="1" transform="matrix(1, 0, 0, 1, -10.517798, -150.889954)"><g transform="translate(124.509559, 224.861572)"><g><path d="M 28.09375 -21.96875 L 11.4375 -21.96875 L 9.703125 -16.671875 L 26.203125 -16.671875 L 24.53125 -11.640625 L 8.09375 -11.640625 L 6.296875 -6.0625 L 22.9375 -6.0625 L 20.96875 0 L -3.203125 0 L 5.859375 -28 L 30.0625 -28 Z M 28.09375 -21.96875 "/></g></g></g><g fill="#ffffff" fill-opacity="1" transform="matrix(1, 0, 0, 1, -10.517798, -150.889954)"><g transform="translate(151.34023, 224.861572)"><g><path d="M -3.203125 0 L 5.90625 -28 L 13.4375 -28 L 6.328125 -6.296875 L 22.5 -6.296875 L 20.5 0 Z M -3.203125 0 "/></g></g></g><g fill="#ffffff" fill-opacity="1" transform="matrix(1, 0, 0, 1, -10.517798, -150.889954)"><g transform="translate(177.504295, 224.861572)"><g><path d="M 26.171875 -28 L 33.703125 -28 L 24.703125 0 L 17.171875 0 L 20.59375 -10.640625 L 7.828125 -10.640625 L 4.40625 0 L -3.140625 0 L 5.859375 -28 L 13.40625 -28 L 9.796875 -16.828125 L 22.5625 -16.828125 Z M 26.171875 -28 "/></g></g></g><g fill="#ffffff" fill-opacity="1" transform="matrix(1, 0, 0, 1, -10.517798, -150.889954)"><g transform="translate(208.067926, 224.861572)"><g><path d="M 13 0.9375 C 10.375 0.9375 8.132812 0.476562 6.28125 -0.4375 C 4.425781 -1.363281 3.003906 -2.675781 2.015625 -4.375 C 1.023438 -6.082031 0.53125 -8.101562 0.53125 -10.4375 C 0.53125 -12.363281 0.851562 -14.234375 1.5 -16.046875 C 2.144531 -17.859375 3.054688 -19.539062 4.234375 -21.09375 C 5.410156 -22.65625 6.816406 -24.023438 8.453125 -25.203125 C 10.085938 -26.378906 11.894531 -27.296875 13.875 -27.953125 C 15.863281 -28.609375 17.984375 -28.9375 20.234375 -28.9375 C 22.859375 -28.9375 25.097656 -28.476562 26.953125 -27.5625 C 28.804688 -26.65625 30.226562 -25.347656 31.21875 -23.640625 C 32.207031 -21.941406 32.703125 -19.914062 32.703125 -17.5625 C 32.703125 -15.632812 32.378906 -13.765625 31.734375 -11.953125 C 31.085938 -10.140625 30.175781 -8.453125 29 -6.890625 C 27.820312 -5.335938 26.414062 -3.972656 24.78125 -2.796875 C 23.144531 -1.617188 21.332031 -0.703125 19.34375 -0.046875 C 17.351562 0.609375 15.238281 0.9375 13 0.9375 Z M 14.203125 -5.5625 C 15.828125 -5.5625 17.3125 -5.878906 18.65625 -6.515625 C 20 -7.148438 21.15625 -7.992188 22.125 -9.046875 C 23.101562 -10.109375 23.863281 -11.28125 24.40625 -12.5625 C 24.957031 -13.851562 25.234375 -15.144531 25.234375 -16.4375 C 25.234375 -17.75 24.957031 -18.847656 24.40625 -19.734375 C 23.863281 -20.617188 23.125 -21.289062 22.1875 -21.75 C 21.257812 -22.207031 20.207031 -22.4375 19.03125 -22.4375 C 17.40625 -22.4375 15.921875 -22.117188 14.578125 -21.484375 C 13.234375 -20.847656 12.066406 -20 11.078125 -18.9375 C 10.085938 -17.882812 9.328125 -16.71875 8.796875 -15.4375 C 8.265625 -14.164062 7.988281 -12.882812 7.96875 -11.59375 C 7.96875 -10.289062 8.238281 -9.1875 8.78125 -8.28125 C 9.320312 -7.382812 10.066406 -6.707031 11.015625 -6.25 C 11.960938 -5.789062 13.023438 -5.5625 14.203125 -5.5625 Z M 14.203125 -5.5625 "/></g></g></g><g fill="#ffffff" fill-opacity="1" transform="matrix(1, 0, 0, 1, -10.517798, -150.889954)"><g transform="translate(241.264625, 224.861572)"><g><path d="M -3.140625 0 L 5.859375 -28 L 15.09375 -28 L 15.265625 -9.734375 L 15.9375 -9.734375 L 27.765625 -28 L 37.796875 -28 L 28.828125 0 L 21.59375 0 L 26.53125 -15.359375 L 25.765625 -15.359375 L 16 0 L 10.171875 0 L 9.765625 -15.359375 L 9 -15.359375 L 4.0625 0 Z M -3.140625 0 "/></g></g></g><g fill="#ffffff" fill-opacity="1" transform="matrix(1, 0, 0, 1, -10.517798, -150.889954)"><g transform="translate(275.961175, 224.861572)"><g><path d="M -3.140625 0 L 5.859375 -28 L 15.09375 -28 L 15.265625 -9.734375 L 15.9375 -9.734375 L 27.765625 -28 L 37.796875 -28 L 28.828125 0 L 21.59375 0 L 26.53125 -15.359375 L 25.765625 -15.359375 L 16 0 L 10.171875 0 L 9.765625 -15.359375 L 9 -15.359375 L 4.0625 0 Z M -3.140625 0 "/></g></g></g><g fill="#ffffff" fill-opacity="1" transform="matrix(1, 0, 0, 1, -10.517798, -150.889954)"><g transform="translate(310.657726, 224.861572)"><g><path d="M 28.09375 -21.96875 L 11.4375 -21.96875 L 9.703125 -16.671875 L 26.203125 -16.671875 L 24.53125 -11.640625 L 8.09375 -11.640625 L 6.296875 -6.0625 L 22.9375 -6.0625 L 20.96875 0 L -3.203125 0 L 5.859375 -28 L 30.0625 -28 Z M 28.09375 -21.96875 "/></g></g></g></svg>